<?xml version="1.0" encoding="UTF-8"?>
<svg xmlns="http://www.w3.org/2000/svg" xmlns:xlink="http://www.w3.org/1999/xlink" width="432.33pt" height="164.99pt" viewBox="0 0 432.33 164.99" version="1.1">
<defs>
<clipPath id="clip1">
  <path d="M 0 115 L 432.328125 115 L 432.328125 164.988281 L 0 164.988281 Z M 0 115 "/>
</clipPath>
</defs>
<g id="surface1">
<path style=" stroke:none;fill-rule:nonzero;fill:rgb(55.299377%,77.598572%,24.699402%);fill-opacity:1;" d="M 92.589844 138.824219 C 89.660156 138.824219 87.566406 140.054688 86.304688 142.503906 L 98.675781 142.503906 C 97.300781 140.054688 95.273438 138.824219 92.589844 138.824219 "/>
<path style=" stroke:none;fill-rule:nonzero;fill:rgb(55.299377%,77.598572%,24.699402%);fill-opacity:1;" d="M 227.996094 138.824219 C 225.066406 138.824219 222.972656 140.054688 221.710938 142.503906 L 234.085938 142.503906 C 232.707031 140.054688 230.679688 138.824219 227.996094 138.824219 "/>
<path style=" stroke:none;fill-rule:nonzero;fill:rgb(55.299377%,77.598572%,24.699402%);fill-opacity:1;" d="M 342.296875 139.089844 C 340.449219 139.089844 338.859375 139.652344 337.527344 140.785156 C 336.191406 141.925781 335.523438 143.277344 335.523438 144.851563 C 335.523438 146.355469 336.199219 147.667969 337.550781 148.800781 C 338.898438 149.925781 340.480469 150.484375 342.296875 150.484375 C 344.066406 150.484375 345.609375 149.90625 346.9375 148.75 C 348.261719 147.597656 348.925781 146.253906 348.925781 144.722656 C 348.925781 143.203125 348.269531 141.890625 346.960938 140.769531 C 345.652344 139.648438 344.097656 139.089844 342.296875 139.089844 "/>
<g clip-path="url(#clip1)" clip-rule="nonzero">
<path style=" stroke:none;fill-rule:nonzero;fill:rgb(55.299377%,77.598572%,24.699402%);fill-opacity:1;" d="M 394.160156 153.417969 C 393.636719 153.875 393.007813 154.101563 392.269531 154.101563 C 391.53125 154.101563 390.90625 153.875 390.390625 153.417969 C 389.875 152.960938 389.621094 152.40625 389.621094 151.765625 C 389.621094 151.128906 389.882813 150.574219 390.40625 150.109375 C 390.929688 149.640625 391.550781 149.40625 392.269531 149.40625 C 393.007813 149.40625 393.636719 149.640625 394.160156 150.109375 C 394.683594 150.574219 394.945313 151.128906 394.945313 151.765625 C 394.945313 152.40625 394.683594 152.960938 394.160156 153.417969 Z M 375.394531 154.207031 L 369.96875 142.816406 L 364.546875 154.054688 L 354.617188 135.859375 L 358.351563 135.859375 L 364.367188 146.832031 L 369.972656 135.105469 L 375.636719 146.945313 L 381.621094 135.859375 L 385.347656 135.859375 Z M 349.84375 151.34375 C 347.710938 153.253906 345.246094 154.207031 342.449219 154.207031 C 339.449219 154.207031 336.851563 153.261719 334.652344 151.371094 C 332.449219 149.484375 331.351563 147.261719 331.351563 144.710938 C 331.351563 142.277344 332.445313 140.109375 334.628906 138.207031 C 336.8125 136.3125 339.320313 135.363281 342.148438 135.363281 C 345.0625 135.363281 347.605469 136.300781 349.785156 138.164063 C 351.960938 140.035156 353.050781 142.214844 353.050781 144.710938 C 353.050781 147.222656 351.980469 149.429688 349.84375 151.34375 Z M 326.519531 154.988281 L 303.394531 134.132813 L 303.394531 153.707031 L 299.125 153.707031 L 299.125 125.046875 L 322.246094 145.992188 L 322.246094 126.152344 L 326.519531 126.152344 Z M 278.703125 152.53125 C 277.3125 153.648438 275.675781 154.207031 273.796875 154.207031 C 270.933594 154.207031 268.582031 153.039063 266.75 150.703125 L 270.113281 149.277344 C 271.292969 150.28125 272.519531 150.789063 273.796875 150.789063 C 274.679688 150.789063 275.453125 150.574219 276.117188 150.152344 C 276.777344 149.730469 277.109375 149.234375 277.109375 148.667969 C 277.109375 147.671875 275.945313 146.777344 273.625 145.984375 C 271.300781 145.1875 269.691406 144.386719 268.800781 143.566406 C 267.90625 142.757813 267.460938 141.753906 267.460938 140.554688 C 267.460938 139.070313 268.097656 137.832031 269.367188 136.851563 C 270.632813 135.859375 272.226563 135.363281 274.136719 135.363281 C 276.054688 135.363281 278.195313 136.234375 280.570313 137.980469 L 277.722656 140.191406 C 276.984375 139.726563 276.347656 139.382813 275.808594 139.144531 C 275.269531 138.902344 274.628906 138.785156 273.894531 138.785156 C 272.160156 138.785156 271.292969 139.34375 271.292969 140.472656 C 271.292969 141.28125 272.394531 142.0625 274.589844 142.824219 C 276.796875 143.585938 278.378906 144.421875 279.34375 145.324219 C 280.308594 146.230469 280.792969 147.328125 280.792969 148.609375 C 280.792969 150.109375 280.09375 151.414063 278.703125 152.53125 Z M 262.148438 132.035156 C 261.503906 132.597656 260.742188 132.875 259.855469 132.875 C 258.953125 132.875 258.179688 132.597656 257.523438 132.035156 C 256.871094 131.46875 256.542969 130.796875 256.542969 129.996094 C 256.542969 129.222656 256.871094 128.546875 257.523438 127.980469 C 258.179688 127.40625 258.953125 127.121094 259.855469 127.121094 C 260.742188 127.121094 261.503906 127.40625 262.148438 127.980469 C 262.796875 128.546875 263.117188 129.222656 263.117188 129.996094 C 263.117188 130.796875 262.796875 131.46875 262.148438 132.035156 Z M 261.96875 153.707031 L 257.746094 153.707031 L 257.746094 135.859375 L 261.96875 135.859375 Z M 223.839844 149.527344 C 225.167969 150.363281 226.621094 150.789063 228.191406 150.789063 C 230.613281 150.789063 232.640625 149.902344 234.28125 148.125 L 237.394531 150.203125 C 235.054688 152.871094 231.921875 154.207031 227.996094 154.207031 C 224.988281 154.207031 222.464844 153.296875 220.4375 151.480469 C 218.410156 149.660156 217.394531 147.402344 217.394531 144.710938 C 217.394531 142.1875 218.417969 140 220.472656 138.148438 C 222.527344 136.296875 225.035156 135.363281 227.996094 135.363281 C 230.910156 135.363281 233.40625 136.308594 235.484375 138.191406 C 237.558594 140.070313 238.582031 142.515625 238.550781 145.511719 L 221.269531 145.511719 C 221.644531 147.34375 222.503906 148.679688 223.839844 149.527344 Z M 213.148438 139.386719 C 212.332031 139.242188 211.789063 139.171875 211.53125 139.171875 C 210.089844 139.171875 208.882813 139.617188 207.910156 140.5 C 206.933594 141.386719 206.449219 142.496094 206.449219 143.824219 L 206.449219 153.707031 L 202.175781 153.707031 L 202.175781 135.859375 L 206.351563 135.859375 L 206.351563 139.542969 C 207.296875 138.070313 208.226563 137.003906 209.136719 136.347656 C 210.042969 135.691406 211.226563 135.363281 212.683594 135.363281 C 213.089844 135.363281 213.679688 135.449219 214.449219 135.628906 Z M 196.433594 146.527344 C 196.433594 148.761719 195.605469 150.605469 193.953125 152.046875 C 192.300781 153.484375 190.191406 154.207031 187.621094 154.207031 C 185.003906 154.207031 182.886719 153.484375 181.265625 152.046875 C 179.644531 150.605469 178.835938 148.722656 178.835938 146.398438 L 178.835938 135.859375 L 183.105469 135.859375 L 183.105469 145.921875 C 183.105469 149.027344 184.652344 150.574219 187.746094 150.574219 C 189.121094 150.574219 190.207031 150.15625 191.007813 149.328125 C 191.8125 148.5 192.210938 147.363281 192.210938 145.921875 L 192.210938 135.859375 L 196.433594 135.859375 Z M 175.816406 139.304688 L 171.59375 139.304688 L 171.59375 153.707031 L 167.324219 153.707031 L 167.324219 139.304688 L 163.960938 139.304688 L 163.960938 135.816406 L 167.324219 135.816406 L 167.324219 130.671875 L 171.59375 130.671875 L 171.59375 135.859375 L 175.816406 135.859375 Z M 160.796875 146.527344 C 160.796875 148.761719 159.96875 150.605469 158.316406 152.046875 C 156.664063 153.484375 154.550781 154.207031 151.984375 154.207031 C 149.363281 154.207031 147.246094 153.484375 145.628906 152.046875 C 144.007813 150.605469 143.195313 148.722656 143.195313 146.398438 L 143.195313 135.859375 L 147.46875 135.859375 L 147.46875 145.921875 C 147.46875 149.027344 149.015625 150.574219 152.105469 150.574219 C 153.480469 150.574219 154.570313 150.15625 155.371094 149.328125 C 156.171875 148.5 156.574219 147.363281 156.574219 145.921875 L 156.574219 135.859375 L 160.796875 135.859375 Z M 139.320313 129.914063 L 126.214844 129.914063 L 126.214844 136.796875 L 139.320313 136.796875 L 139.320313 140.511719 L 126.261719 140.511719 L 126.261719 153.707031 L 121.992188 153.707031 L 121.992188 126.152344 L 139.320313 126.152344 Z M 88.429688 149.527344 C 89.761719 150.363281 91.214844 150.789063 92.785156 150.789063 C 95.207031 150.789063 97.234375 149.902344 98.871094 148.125 L 101.988281 150.203125 C 99.648438 152.871094 96.515625 154.207031 92.589844 154.207031 C 89.578125 154.207031 87.054688 153.296875 85.027344 151.480469 C 83 149.660156 81.984375 147.402344 81.984375 144.710938 C 81.984375 142.1875 83.011719 140 85.066406 138.148438 C 87.117188 136.296875 89.625 135.363281 92.589844 135.363281 C 95.5 135.363281 97.996094 136.308594 100.074219 138.191406 C 102.152344 140.070313 103.175781 142.515625 103.140625 145.511719 L 85.863281 145.511719 C 86.238281 147.34375 87.09375 148.679688 88.429688 149.527344 Z M 77.613281 153.707031 L 73.34375 153.707031 L 73.34375 142.328125 C 73.34375 141.203125 73.019531 140.304688 72.375 139.625 C 71.726563 138.949219 70.875 138.613281 69.808594 138.613281 C 68.273438 138.613281 66.960938 139.125 65.871094 140.144531 C 64.78125 141.167969 64.238281 142.410156 64.238281 143.867188 L 64.238281 153.707031 L 59.96875 153.707031 L 59.96875 125.632813 L 64.238281 125.632813 L 64.238281 138.785156 C 65.417969 137.589844 66.519531 136.71875 67.539063 136.175781 C 68.5625 135.632813 69.808594 135.363281 71.28125 135.363281 C 73 135.363281 74.484375 135.941406 75.738281 137.105469 C 76.988281 138.269531 77.613281 139.652344 77.613281 141.269531 Z M 56.507813 129.914063 L 49.046875 129.914063 L 49.046875 153.707031 L 44.824219 153.707031 L 44.824219 129.914063 L 37.386719 129.914063 L 37.386719 126.152344 L 56.507813 126.152344 Z M 390.109375 126.152344 L 394.234375 126.152344 L 394.234375 146.894531 L 390.109375 146.894531 Z M 407.359375 115.046875 L 24.972656 115.046875 C 11.179688 115.046875 0 126.226563 0 140.019531 C 0 153.808594 11.179688 164.988281 24.972656 164.988281 L 407.359375 164.988281 C 421.152344 164.988281 432.332031 153.808594 432.332031 140.019531 C 432.332031 126.226563 421.152344 115.046875 407.359375 115.046875 "/>
</g>
<path style=" stroke:none;fill-rule:nonzero;fill:rgb(0.799561%,1.199341%,1.199341%);fill-opacity:1;" d="M 1.460938 93.65625 L 17.429688 93.65625 L 17.429688 7.503906 L 1.460938 7.503906 L 1.460938 93.65625 "/>
<path style=" stroke:none;fill-rule:nonzero;fill:rgb(0.799561%,1.199341%,1.199341%);fill-opacity:1;" d="M 186.691406 93.65625 L 202.480469 93.65625 L 202.480469 26.671875 L 186.691406 26.671875 L 186.691406 93.65625 "/>
<path style=" stroke:none;fill-rule:nonzero;fill:rgb(0.799561%,1.199341%,1.199341%);fill-opacity:1;" d="M 316.5625 93.65625 L 332.535156 93.65625 L 332.535156 26.761719 L 316.5625 26.761719 L 316.5625 93.65625 "/>
<path style=" stroke:none;fill-rule:nonzero;fill:rgb(0.799561%,1.199341%,1.199341%);fill-opacity:1;" d="M 94.183594 26.765625 L 58.410156 26.765625 C 58.410156 26.765625 51.90625 26.765625 49.539063 31.523438 L 49.539063 26.765625 L 33.578125 26.765625 L 33.578125 93.660156 L 49.539063 93.660156 L 49.539063 50.609375 C 49.539063 45.316406 53.800781 41.035156 59.0625 41.035156 L 89.398438 41.035156 C 94.644531 41.035156 98.914063 45.316406 98.914063 50.609375 L 98.914063 93.660156 L 114.570313 93.660156 L 114.570313 45.792969 C 114.570313 45.792969 113.390625 26.765625 94.183594 26.765625 "/>
<path style=" stroke:none;fill-rule:nonzero;fill:rgb(0.799561%,1.199341%,1.199341%);fill-opacity:1;" d="M 281.589844 26.765625 L 245.824219 26.765625 C 245.824219 26.765625 239.320313 26.765625 236.949219 31.523438 L 236.949219 26.765625 L 220.980469 26.765625 L 220.980469 93.660156 L 236.949219 93.660156 L 236.949219 50.609375 C 236.949219 45.316406 241.210938 41.035156 246.46875 41.035156 L 276.796875 41.035156 C 282.058594 41.035156 286.320313 45.316406 286.320313 50.609375 L 286.320313 93.660156 L 301.980469 93.660156 L 301.980469 45.792969 C 301.980469 45.792969 300.800781 26.765625 281.589844 26.765625 "/>
<path style=" stroke:none;fill-rule:nonzero;fill:rgb(0.799561%,1.199341%,1.199341%);fill-opacity:1;" d="M 186.691406 14.046875 L 203.0625 14.046875 L 203.0625 0.167969 L 186.691406 0.167969 L 186.691406 14.046875 "/>
<path style=" stroke:none;fill-rule:nonzero;fill:rgb(0.799561%,1.199341%,1.199341%);fill-opacity:1;" d="M 332.335938 0.167969 L 316.164063 0.167969 L 316.164063 14.046875 L 332.335938 14.046875 L 332.335938 0.167969 "/>
<path style=" stroke:none;fill-rule:nonzero;fill:rgb(0.799561%,1.199341%,1.199341%);fill-opacity:1;" d="M 133.785156 18.007813 L 133.785156 26.683594 L 112.902344 26.683594 C 112.902344 26.683594 118.621094 28.90625 122.554688 41.09375 L 133.695313 41.09375 L 133.695313 93.65625 L 149.648438 93.65625 L 149.648438 41.09375 L 172.808594 41.09375 L 172.808594 26.683594 L 149.648438 26.683594 C 149.648438 26.683594 149.554688 27.21875 149.453125 26.683594 L 149.453125 20.894531 C 149.453125 14.308594 152.632813 14.050781 160.082031 14.050781 L 172.808594 14.050781 L 172.808594 0.167969 L 160.082031 0.167969 C 160.082031 0.167969 133.785156 -2.941406 133.785156 18.007813 "/>
<path style=" stroke:none;fill-rule:nonzero;fill:rgb(0.799561%,1.199341%,1.199341%);fill-opacity:1;" d="M 428.484375 26.765625 L 408.5625 26.765625 L 385.566406 50.113281 L 362.5625 26.765625 L 342.644531 26.765625 L 375.550781 60.269531 L 342.644531 93.660156 L 362.8125 93.660156 L 385.566406 70.488281 L 408.320313 93.660156 L 428.484375 93.660156 L 395.582031 60.269531 L 428.484375 26.765625 "/>
</g>
</svg>
