<?xml version="1.0" encoding="utf-8"?>
<!-- Generator: Adobe Illustrator 25.0.0, SVG Export Plug-In . SVG Version: 6.00 Build 0)  -->
<svg version="1.1" id="Layer_1" xmlns="http://www.w3.org/2000/svg" xmlns:xlink="http://www.w3.org/1999/xlink" x="0px" y="0px"
	 viewBox="0 0 500 500" style="enable-background:new 0 0 500 500;" xml:space="preserve">
<style type="text/css">
	.st0{fill:url(#SVGID_1_);}
	.st1{fill:#FFFFFF;}
</style>
<g>
	
		<linearGradient id="SVGID_1_" gradientUnits="userSpaceOnUse" x1="-55.4405" y1="646.4496" x2="-54.4332" y2="647.4285" gradientTransform="matrix(0 -300 -300 0 194327.8281 -16235.0479)">
		<stop  offset="0" style="stop-color:#5012E5"/>
		<stop  offset="1" style="stop-color:#EE23DA"/>
	</linearGradient>
	<path class="st0" d="M352.4,432.5H147.6c-44.2,0-80.1-35.9-80.1-80.1V147.6c0-44.2,35.9-80.1,80.1-80.1h204.8
		c44.2,0,80.1,35.9,80.1,80.1v204.8C432.5,396.6,396.6,432.5,352.4,432.5z"/>
	<path class="st1" d="M208.8,385.6c-0.4-0.1-0.9-0.3-1.3-0.4c-37.7-10.6-55.4-52.5-45.1-86.5c5.4-17.9,17-31.1,32.1-41.4
		c10.2-6.9,20.7-13.3,30.9-20.2c14.5-9.9,25.5-22.8,31-39.8c6.7-20.8,4.5-40.3-10.4-56.9c-15.6-17.5-35.8-24.3-58.9-21.3
		c-29.6,3.8-51.8,19.5-67.9,44.3c-0.7,1-1.1,2.1-1.7,3.2c6.7-4.3,13.6-7.1,21.3-8c15.6-1.9,30.6,8.4,33.5,23.4
		c2.3,11.5-0.7,22.1-7.6,31.2c-7.3,9.7-15.4,18.9-23.3,28.2c-18.4,21.3-27.8,45.5-23.9,73.9c3.3,23.9,15.5,42.5,35.3,55.9
		C169.6,382.4,188.8,385.7,208.8,385.6"/>
	<path class="st1" d="M258.9,232c10.8-0.1,21.3,2,31.8,5c14.9,4.3,28.8,10.7,41.9,18.8c12.4,7.7,25.7,9.9,39.9,7.5
		c2.8-0.5,5.5-1.4,8.1-2.4c0.9-0.4,1.9-1.8,2-2.8c0.2-3.4,0.2-6.9-0.1-10.3c-1-11.6-4.7-22.3-11.3-31.9c-8-11.7-19.2-19-32.4-23.5
		c-2.2-0.8-3.1-1.9-3.5-4c-0.6-3-1.5-5.9-2.5-8.8c-2-5.4-4.7-10.5-9.3-14.7c-0.8,1-1.6,1.8-2.2,2.7c-6.3,9-8.8,19.3-8.8,30.1
		c0,3.1-0.9,5.4-3.4,7c-6.9,4.5-13.5,9.5-20.8,13.4C278.9,223.3,268.8,227.5,258.9,232"/>
	<path class="st1" d="M296.5,363.2c3.3-9.6,4.9-18.8,4.8-28.3c-0.1-12.5-2.3-24.6-8.6-35.4c-14.3-24.4-35.7-37.1-64.2-36.9
		c-14.1,0.1-26.6,4.9-36.9,14.9c-5,4.9-8.9,10.6-11.8,17.8c26.8-28.3,70.3-19.8,86.9,5.7c10.1,15.5,12.6,32.1,6.6,49.6
		c-6,17.6-19,28.5-36.1,35.2c31.9-0.1,63.6-0.5,96.1-3.5C325.5,366.5,311.4,364.3,296.5,363.2"/>
	<path class="st1" d="M383.9,296.8c-0.3-5.8-3.2-9.7-7.5-12.6c-5.3-3.5-11.5-4.4-17.7-5c-11.3-1-22.1-3.7-32.1-9.2
		c-8.5-4.7-16.7-10.1-25.4-14.4c-13.8-6.7-28.5-10-43.7-11.4c-10.4-1-20.6-0.1-30.6,3.1c-1.2,0.4-2.3,1-3.4,1.5
		c1.3,0.5,2.4,0.5,3.5,0.5c11.7-0.3,23.2,1.4,34.2,5.5c22.8,8.7,39.4,24.5,51.1,45.5c1.1,2,2.5,3.5,4.6,3.7
		c5.3,0.5,10.7,1.2,16.1,0.9c6.9-0.4,13-3.5,19.2-6.4c7.3-3.4,14.9-5.1,23-3.8C377.8,295.3,380.6,296,383.9,296.8"/>
	<path class="st1" d="M208.8,385.6c-20,0.1-39.2-3.2-56-14.5c-19.8-13.4-32-32-35.3-55.9c-4-28.4,5.5-52.6,23.9-73.9
		c8-9.2,16-18.4,23.3-28.2c6.9-9.1,9.9-19.7,7.6-31.2c-2.9-15-18-25.3-33.5-23.4c-7.7,0.9-14.6,3.7-21.3,8c0.6-1.1,1.1-2.2,1.7-3.2
		c16.1-24.8,38.2-40.5,67.9-44.3c23.1-3,43.2,3.8,58.9,21.3c14.9,16.6,17.1,36.1,10.4,56.9c-5.5,17-16.5,29.9-31,39.8
		c-10.2,6.9-20.7,13.3-30.9,20.2c-15.1,10.3-26.7,23.6-32.1,41.4c-10.3,34,7.5,75.9,45.2,86.5C207.9,385.3,208.3,385.4,208.8,385.6"
		/>
	<path class="st1" d="M258.9,232c9.8-4.6,19.9-8.8,29.5-13.9c7.3-3.9,13.9-8.8,20.8-13.4c2.5-1.6,3.4-3.9,3.4-7
		c0-10.8,2.5-21,8.8-30.1c0.6-0.9,1.3-1.6,2.2-2.7c4.5,4.2,7.2,9.3,9.3,14.7c1,2.9,1.9,5.8,2.5,8.8c0.5,2.1,1.3,3.3,3.5,4
		c13.2,4.4,24.4,11.8,32.4,23.5c6.6,9.6,10.3,20.3,11.3,31.9c0.3,3.4,0.3,6.9,0.1,10.3c-0.1,1-1.1,2.4-2,2.8c-2.6,1.1-5.4,2-8.1,2.4
		c-14.2,2.4-27.5,0.2-39.9-7.5c-13.1-8.1-27-14.6-41.9-18.8C280.3,234,269.7,231.9,258.9,232"/>
	<path class="st1" d="M296.5,363.2c14.9,1.1,29,3.4,36.9,19c-32.5,2.9-64.2,3.4-96.1,3.5c17.1-6.7,30.1-17.6,36.1-35.2
		c6-17.5,3.4-34.1-6.6-49.6c-16.6-25.5-60.1-34-86.9-5.7c2.9-7.2,6.7-12.9,11.8-17.8c10.2-10,22.8-14.8,36.9-14.9
		c28.5-0.2,49.9,12.6,64.2,36.9c6.3,10.8,8.5,22.9,8.6,35.4C301.4,344.4,299.8,353.6,296.5,363.2"/>
	<path class="st1" d="M383.9,296.8c-3.3-0.7-6.1-1.5-8.9-2c-8.1-1.3-15.7,0.4-23,3.8c-6.2,2.9-12.3,6-19.2,6.4
		c-5.3,0.3-10.7-0.4-16.1-0.9c-2.1-0.2-3.5-1.7-4.6-3.7c-11.8-21.1-28.3-36.9-51.2-45.5c-11-4.2-22.4-5.8-34.2-5.5
		c-1.1,0-2.1,0-3.5-0.5c1.1-0.5,2.2-1.1,3.4-1.5c10-3.2,20.2-4.1,30.6-3.1c15.2,1.4,30,4.7,43.7,11.4c8.7,4.3,16.9,9.7,25.4,14.4
		c10,5.5,20.8,8.2,32.1,9.2c6.2,0.6,12.4,1.5,17.7,5C380.7,287.1,383.6,291,383.9,296.8"/>
	<path class="st1" d="M220.4,293.9c-21.5,0-39,17.4-39,38.8c-0.1,21.6,17.4,39,39.1,38.9c21.6,0,38.8-17.3,38.8-38.9
		C259.2,311.2,241.9,293.9,220.4,293.9z M220.1,350.7c-9.8,0-17.8-8.1-17.8-17.9c0-9.8,8.2-18,18.1-18s18,8.2,17.9,18.1
		C238.1,343,230.3,350.7,220.1,350.7z"/>
</g>
</svg>
