<svg id="Layer_1" data-name="Layer 1" xmlns="http://www.w3.org/2000/svg" viewBox="0 0 122.88 23.06"><defs><style>.cls-1{fill:#1d76bc;}</style></defs><title>tecno-mobile</title><path class="cls-1" d="M117.2,0H105a5.68,5.68,0,0,0-5.68,5.68V17.39A5.67,5.67,0,0,0,105,23.06H117.2a5.67,5.67,0,0,0,5.68-5.67V5.68A5.68,5.68,0,0,0,117.2,0Zm-.7,16.75h0a3.31,3.31,0,0,1-3.31,3.31H109a3.32,3.32,0,0,1-3.32-3.31V6.31A3.32,3.32,0,0,1,109,3h4.2a3.31,3.31,0,0,1,3.31,3.31V16.75Z"/><path class="cls-1" d="M59.37,3.07h10a.26.26,0,0,0,.26-.25V.25A.26.26,0,0,0,69.39,0h-14a5.68,5.68,0,0,0-5.68,5.68V17.39a5.68,5.68,0,0,0,5.68,5.67h14a.26.26,0,0,0,.26-.25V20.25a.26.26,0,0,0-.26-.26h-10a3.29,3.29,0,0,1-3.31-3.28V6.36a3.3,3.3,0,0,1,3.31-3.29Z"/><path class="cls-1" d="M90.47,0H72.92a.25.25,0,0,0-.26.25V22.81a.25.25,0,0,0,.26.25h5.81a.25.25,0,0,0,.25-.25V3.07h7.53a3.31,3.31,0,0,1,3.31,3.31V22.81a.26.26,0,0,0,.26.25h5.81a.26.26,0,0,0,.26-.25V5.68A5.68,5.68,0,0,0,90.47,0Z"/><path class="cls-1" d="M23.26,0H.25A.25.25,0,0,0,0,.25V2.82a.25.25,0,0,0,.25.25H8.49V22.81a.26.26,0,0,0,.26.25h5.81a.26.26,0,0,0,.26-.25V6.36a3.3,3.3,0,0,1,3.31-3.29h5.13a.25.25,0,0,0,.25-.25V.25A.25.25,0,0,0,23.26,0Z"/><path class="cls-1" d="M32.92,13.32a.25.25,0,0,1,.25-.25H46.3a.26.26,0,0,0,.26-.26V10.25A.26.26,0,0,0,46.3,10H36.23a3.3,3.3,0,0,1-3.31-3.29V6.36a3.3,3.3,0,0,1,3.31-3.29H46.3a.26.26,0,0,0,.26-.25V.25A.26.26,0,0,0,46.3,0h-14a5.68,5.68,0,0,0-5.68,5.68V17.39a5.67,5.67,0,0,0,5.68,5.67h14a.26.26,0,0,0,.26-.25V20.25A.26.26,0,0,0,46.3,20H36.22a3.29,3.29,0,0,1-3.3-3.28V13.32Z"/></svg>